<?xml version='1.0' encoding='UTF-8' standalone='no'?>
<!-- Created with Fritzing (http://www.fritzing.org/) -->
<svg xmlns:svg='http://www.w3.org/2000/svg' xmlns='http://www.w3.org/2000/svg' version='1.2' baseProfile='tiny' x='0in' y='0in' width='2.38959in' height='2.5103in' viewBox='0 0 172.051 180.742' >
<path stroke='#8c8c8c' stroke-width='2.0952' stroke-linecap='round' stroke-linejoin='round' fill='none' d='M89.6,111.694L89.6,112.742' />
<path stroke='#8c8c8c' stroke-width='2.0952' stroke-linecap='round' stroke-linejoin='round' fill='none' d='M89.6,84.9845L89.6,76.7419' />
<g partID='854104400'><g transform='translate(93.2324,82.8893)' ><g transform='matrix(0,1,-1,0,0,0)'  ><g xmlns="http://www.w3.org/2000/svg" id="breadboard">
 <rect xmlns="http://www.w3.org/2000/svg" x="0.36" y="2.5848" height="0.72" id="connector0pin" fill="none" width="0.72"/>
 <rect xmlns="http://www.w3.org/2000/svg" x="29.8202" y="2.5848" height="0.72" id="connector1pin" fill="none" width="0.72"/>
 <line xmlns="http://www.w3.org/2000/svg" stroke="#8C8C8C" id="connector0leg" y2="3.6324" stroke-linecap="round" x2="2.0952" stroke-width="2.0952" x1="1.0476" fill="none" y1="3.6324"/>
 <line xmlns="http://www.w3.org/2000/svg" stroke="#8C8C8C" id="connector1leg" y2="3.6324" stroke-linecap="round" x2="28.805" stroke-width="2.0952" x1="29.8526" fill="none" y1="3.6324"/>
 <path xmlns="http://www.w3.org/2000/svg" stroke="#8C8C8C" d="M1.0476,3.6324l28.3666,0" stroke-width="2.0952" fill="none"/>
 <path xmlns="http://www.w3.org/2000/svg" d="M10.2478,0.49536c-0.36,-0.1656,-0.9792,-0.2952,-1.3752,-0.2952l-1.9872,0c-0.396,0,-0.72,0.324,-0.72,0.72l0,5.35608c0,0.39672,0.324,0.72,0.72,0.72l1.9872,0c0.396,0,1.0152,-0.13608,1.3752,-0.2952l0.072,-0.03528c0.36,-0.1656,0.9792,-0.2952,1.3752,-0.2952l7.1856,0c0.39672,0,1.01448,0.13608,1.37448,0.2952l0.07272,0.03528c0.36,0.1656,0.97776,0.2952,1.3752,0.2952l1.9872,0c0.39744,0,0.72,-0.32328,0.72,-0.72L24.4102,0.92016c0,-0.396,-0.32256,-0.72,-0.72,-0.72l-1.9872,0c-0.39744,0,-1.0152,0.1368,-1.3752,0.2952l-0.07272,0.036c-0.36,0.1656,-0.97776,0.2952,-1.37448,0.2952l-7.1856,0c-0.396,0,-1.0152,-0.1368,-1.3752,-0.2952L10.2478,0.49536z" id="body" fill="#D9B477"/>
 <rect xmlns="http://www.w3.org/2000/svg" x="22.019" y="0.19368" height="6.79536" id="gold_band" fill="#ad9f4e" width="0.70272"/>
 <rect xmlns="http://www.w3.org/2000/svg" x="16.1726" y="0.82656" height="5.5368" id="band_rd_multiplier" fill="#ff4d00" width="1.8504"/>
 <rect xmlns="http://www.w3.org/2000/svg" x="12.4726" y="0.82656" height="5.5368" id="band_2_nd" fill="#000000" width="1.8504"/>
 <path xmlns="http://www.w3.org/2000/svg" d="M10.6286,0.63936c-0.1152,-0.036,-0.2232,-0.072,-0.3096,-0.1152l-0.072,-0.036c-0.36,-0.16488,-0.9792,-0.2952,-1.3752,-0.2952l-0.0864,0l0,6.79608l0.0864,0c0.396,0,1.0152,-0.13608,1.3752,-0.2952l0.072,-0.03528c0.0864,-0.04464,0.1944,-0.07992,0.3096,-0.1152L10.6286,0.63936z" id="band_1_st" fill="#8a3d06"/>
 <path xmlns="http://www.w3.org/2000/svg" d="M23.711,4.0896L23.711,4.0896c0,0.37944,-0.13032,0.69912,-0.2952,0.69912l-1.9224,0c-0.38016,0,-0.97776,-0.05616,-1.33272,-0.1224L20.088,4.65048c-0.34488,-0.0648,-0.94896,-0.1224,-1.33344,-0.1224L11.808,4.52808c-0.3816,0,-0.9792,0.0576,-1.332,0.1224l-0.072,0.01512c-0.3456,0.06552,-0.9432,0.1224,-1.332,0.1224l-0.3168,0l-1.0008,0l-0.3096,0c-0.3816,0,-0.6984,0.29376,-0.6984,0.64512l0,0.24696L6.7464,5.8392l0,0.1728c0,0.36,0.3168,0.64512,0.6984,0.64512l1.62,0c0.3816,0,0.9792,-0.1224,1.332,-0.26712l0.072,-0.02808c0.3456,-0.14112,0.9504,-0.26496,1.332,-0.26496l6.94656,0c0.37944,0,0.97704,0.12384,1.33416,0.26568l0.07416,0.02808c0.34488,0.14472,0.94464,0.26712,1.33344,0.26712l2.2248,0c0.38088,0,0.69912,-0.2952,0.69912,-0.64512L24.413,5.472L24.413,4.49928L24.413,2.65536C24.1358,2.76336,23.711,3.06576,23.711,4.0896z" id="Shadow" opacity="0.3"/>
 <rect xmlns="http://www.w3.org/2000/svg" x="22.019" y="3.48336" height="3.15288" id="ShadowExtra" opacity="0.4" width="0.70272"/>
 <path xmlns="http://www.w3.org/2000/svg" d="M19.751,1.08576c0.22968,0,0.49104,-0.1008,0.6624,-0.1728c0.2016,-0.0792,0.57672,-0.144,0.96624,-0.144l1.46088,0c0.22464,0,0.22464,0.2448,0.22464,0.3744c0,0.1296,-0.01512,0.3816,-0.22464,0.3816l-3.06,0c-0.10728,0,-0.2304,-0.1152,-0.2304,-0.22392C19.5566,1.21536,19.6286,1.08576,19.751,1.08576z" id="ReflexRight" opacity="0.25" fill="#FFFFFF"/>
 <circle xmlns="http://www.w3.org/2000/svg" cy="1.13616" id="ReflexLeft" opacity="0.35" r="0.432" cx="6.99984" fill="#FFFFFF"/>
 <rect xmlns="http://www.w3.org/2000/svg" x="22.019" y="0.42336" height="1.62" id="Reflex_gold" opacity="0.5" fill="#FFFF33" width="0.70272"/>
 <rect xmlns="http://www.w3.org/2000/svg" x="22.019" y="0.78336" height="0.7488" id="Reflex_extra" opacity="0.5" fill="#FFFFFF" width="0.70272"/>
</g>
</g></g></g><path stroke='#8c8c8c' stroke-width='2.094' stroke-linecap='round' stroke-linejoin='round' fill='none' d='M89.6,75.6949L89.6,76.7419' />
<path stroke='#8c8c8c' stroke-width='2.094' stroke-linecap='round' stroke-linejoin='round' fill='none' d='M89.6,50.0039L89.6,48.9569' />
<g partID='854104430'><g transform='translate(93.23,47.9099)' ><g transform='matrix(0,1,-1,0,0,0)'  ><g xmlns="http://www.w3.org/2000/svg" id="breadboard">
 <rect xmlns="http://www.w3.org/2000/svg" x="0.011" y="2.583" height="1" id="connector0pin" fill="none" width="1"/>
 <rect xmlns="http://www.w3.org/2000/svg" x="25.576" y="2.583" height="1" id="connector1pin" fill="none" width="1"/>
 <g xmlns="http://www.w3.org/2000/svg" stroke="#8C8C8C" id="connector0leg" y2="3.63" stroke-linecap="round" x2="2.094" stroke-width="2.094" x1="1.047" fill="none" y1="3.63"/>
 <g xmlns="http://www.w3.org/2000/svg" stroke="#8C8C8C" id="connector1leg" y2="3.63" stroke-linecap="round" x2="28.832" stroke-width="2.094" x1="27.785" fill="none" y1="3.63"/>
 <rect xmlns="http://www.w3.org/2000/svg" x="2.094" y="2.583" height="2.094" id="rect7" fill="#8C8C8C" width="25.691"/>
 <g xmlns="http://www.w3.org/2000/svg">
  <path xmlns="http://www.w3.org/2000/svg" d="M9.159,0L7.002,0c-0.475,0,-0.393,7.193,0,7.193l2.157,0c0.396,0,11.114,0,11.508,0l2.158,0c0.515,0,0.558,-7.193,0,-7.193l-2.158,0C20.27,0,9.553,0,9.159,0z" id="Body_1_" fill="#1A1A1A"/>
  <rect xmlns="http://www.w3.org/2000/svg" x="9.783" y="0" height="7.193" id="rect16" opacity="0.74" enable-background="new    " fill="#FFFFFF" width="1.992"/>
  <path xmlns="http://www.w3.org/2000/svg" d="M7.289,0.358c0.726,0,1.145,0,1.866,0c0.719,0,10.786,0,11.508,0c0.021,0,0.229,0,0.479,0c0.563,0,1.066,0,1.311,0c0.354,0,1.146,0.36,-0.354,0.36c-1.08,0,-0.726,0,-1.438,0c-0.717,0,-10.791,0,-11.508,0c-0.723,0,-1.145,0,-1.866,0C6.931,0.719,6.573,0.358,7.289,0.358z" id="Reflex_1_" opacity="0.4" enable-background="new    " fill="#FFFFFF"/>
  <path xmlns="http://www.w3.org/2000/svg" d="M22.822,7.194c-0.727,0.014,-1.438,0,-2.156,0c-0.902,0,-12.942,0,-13.667,0c-0.091,0,-0.202,-0.723,-0.182,-0.723c1.293,0,1.613,0,2.336,0c0.723,0,10.789,0,11.509,0c0.721,0,1.67,0,2.393,0C23.076,6.471,22.969,7.192,22.822,7.194z" id="Shaddow_1_" opacity="0.4" enable-background="new    "/>
 </g>
</g>
</g></g></g><g partID='854104620'><g transform='translate(73.0256,0)' ><g id="breadboard" xmlns="http://www.w3.org/2000/svg">
<rect x="0" y="0" height="17.4073" id="upper" stroke-width="0" fill="#000000" xmlns="http://www.w3.org/2000/svg" width="18.7216"/>
<rect x="0" y="15.84" height="2.22912" id="lower" stroke-width="0" fill="#404040" xmlns="http://www.w3.org/2000/svg" width="18.7216"/>
<text x="1.86437" stroke="none" y="9.36" id="label" font-family="Droid Sans" text-anchor="start" font-size="5.256" fill="#e6e6e6" xmlns="http://www.w3.org/2000/svg">SS443R</text>
<circle cy="3.6" r="2.16" stroke-width="0" cx="15.1216" fill="#8C8C8C" xmlns="http://www.w3.org/2000/svg"/>
<text x="15.1216" font-weight="bold" y="4.824" font-family="Droid Sans" text-anchor="middle" stroke-width="0" font-size="3.96" xmlns="http://www.w3.org/2000/svg">?</text>
<g x="1.3464" stroke="none" y="18.4219" height="1.44" id="connector0terminal" stroke-width="0" fill="#8C8C8C" xmlns="http://www.w3.org/2000/svg" width="1.656"/>
<rect x="1.3464" stroke="none" y="16.8019" height="3.06" id="connector0pin" stroke-width="0" fill="#8C8C8C" xmlns="http://www.w3.org/2000/svg" width="1.656"/>
<g x="8.5464" stroke="none" y="18.4219" height="1.44" id="connector1terminal" stroke-width="0" fill="#8C8C8C" xmlns="http://www.w3.org/2000/svg" width="1.656"/>
<rect x="8.5464" stroke="none" y="16.8019" height="3.06" id="connector1pin" stroke-width="0" fill="#8C8C8C" xmlns="http://www.w3.org/2000/svg" width="1.656"/>
<g x="15.7464" stroke="none" y="18.4219" height="1.44" id="connector2terminal" stroke-width="0" fill="#8C8C8C" xmlns="http://www.w3.org/2000/svg" width="1.656"/>
<rect x="15.7464" stroke="none" y="16.8019" height="3.06" id="connector2pin" stroke-width="0" fill="#8C8C8C" xmlns="http://www.w3.org/2000/svg" width="1.656"/>
</g>
</g></g><g partID='854104750'><line stroke-linecap='round' stroke='#8c0000' x1='89.6' y1='112.742' x2='104' y2='112.742' stroke-width='3.2' /><line stroke-linecap='round' stroke='#cc1414' x1='89.6' y1='112.742' x2='104' y2='112.742' stroke-width='1.6' /></g><g partID='854104820'><line stroke-linecap='round' stroke='#00a527' x1='89.6' y1='76.7419' x2='104' y2='76.742' stroke-width='3.2' /><line stroke-linecap='round' stroke='#25cc35' x1='89.6' y1='76.7419' x2='104' y2='76.742' stroke-width='1.6' /></g><g partID='854105100'><line stroke-linecap='round' stroke='#000000' x1='132.903' y1='33.4683' x2='136.4' y2='47.9418' stroke-width='3.2' /><line stroke-linecap='round' stroke='#404040' x1='132.903' y1='33.4683' x2='136.4' y2='47.9418' stroke-width='1.6' /></g><g partID='854104970'><line stroke-linecap='round' stroke='#000000' x1='82.4' y1='19.1419' x2='82.3228' y2='33.4683' stroke-width='3.2' /><line stroke-linecap='round' stroke='#404040' x1='82.4' y1='19.1419' x2='82.3228' y2='33.4683' stroke-width='1.6' /></g><g partID='854105040'><line stroke-linecap='round' stroke='#000000' x1='82.3228' y1='33.4683' x2='132.903' y2='33.4683' stroke-width='3.2' /><line stroke-linecap='round' stroke='#404040' x1='82.3228' y1='33.4683' x2='132.903' y2='33.4683' stroke-width='1.6' /></g><g partID='854105350'><line stroke-linecap='round' stroke='#8c0000' x1='75.135' y1='112.8' x2='75.2' y2='19.1419' stroke-width='3.2' /><line stroke-linecap='round' stroke='#cc1414' x1='75.135' y1='112.8' x2='75.2' y2='19.1419' stroke-width='1.6' /></g><g partID='854105240'><line stroke-linecap='round' stroke='#8c0000' x1='89.6' y1='112.742' x2='75.135' y2='112.8' stroke-width='3.2' /><line stroke-linecap='round' stroke='#cc1414' x1='89.6' y1='112.742' x2='75.135' y2='112.8' stroke-width='1.6' /></g><g partID='854105490'><line stroke-linecap='round' stroke='#00a527' x1='89.6' y1='48.9569' x2='89.6' y2='19.1419' stroke-width='3.2' /><line stroke-linecap='round' stroke='#25cc35' x1='89.6' y1='48.9569' x2='89.6' y2='19.1419' stroke-width='1.6' /></g><g partID='854105560'><line stroke-linecap='round' stroke='#000000' x1='17.6' y1='127.009' x2='17.6' y2='163.142' stroke-width='3.2' /><line stroke-linecap='round' stroke='#404040' x1='17.6' y1='127.009' x2='17.6' y2='163.142' stroke-width='1.6' /></g><g partID='854105610'><line stroke-linecap='round' stroke='#000000' x1='168.842' y1='55.0315' x2='147.2' y2='55.1423' stroke-width='3.2' /><line stroke-linecap='round' stroke='#404040' x1='168.842' y1='55.0315' x2='147.2' y2='55.1423' stroke-width='1.6' /></g><g partID='854106460'><line stroke-linecap='round' stroke='#000000' x1='17.6' y1='163.142' x2='168.8' y2='163.142' stroke-width='3.2' /><line stroke-linecap='round' stroke='#404040' x1='17.6' y1='163.142' x2='168.8' y2='163.142' stroke-width='1.6' /></g><g partID='854106480'><line stroke-linecap='round' stroke='#000000' x1='168.8' y1='163.142' x2='168.842' y2='55.0315' stroke-width='3.2' /><line stroke-linecap='round' stroke='#404040' x1='168.8' y1='163.142' x2='168.842' y2='55.0315' stroke-width='1.6' /></g><g partID='854106440'><line stroke-linecap='round' stroke='#000000' x1='161.6' y1='155.942' x2='161.654' y2='62.2193' stroke-width='3.2' /><line stroke-linecap='round' stroke='#404040' x1='161.6' y1='155.942' x2='161.654' y2='62.2193' stroke-width='1.6' /></g><g partID='854106420'><line stroke-linecap='round' stroke='#000000' x1='24.8' y1='155.942' x2='161.6' y2='155.942' stroke-width='3.2' /><line stroke-linecap='round' stroke='#404040' x1='24.8' y1='155.942' x2='161.6' y2='155.942' stroke-width='1.6' /></g><g partID='854105700'><line stroke-linecap='round' stroke='#000000' x1='161.654' y1='62.2193' x2='147.2' y2='62.3422' stroke-width='3.2' /><line stroke-linecap='round' stroke='#404040' x1='161.654' y1='62.2193' x2='147.2' y2='62.3422' stroke-width='1.6' /></g><g partID='854105670'><line stroke-linecap='round' stroke='#000000' x1='24.8' y1='127.409' x2='24.8' y2='155.942' stroke-width='3.2' /><line stroke-linecap='round' stroke='#404040' x1='24.8' y1='127.409' x2='24.8' y2='155.942' stroke-width='1.6' /></g><g partID='854106220'><line stroke-linecap='round' stroke='#8c0000' x1='89.6' y1='177.542' x2='89.6' y2='134.342' stroke-width='3.2' /><line stroke-linecap='round' stroke='#cc1414' x1='89.6' y1='177.542' x2='89.6' y2='134.342' stroke-width='1.6' /></g><g partID='854106200'><line stroke-linecap='round' stroke='#8c0000' x1='89.6' y1='134.342' x2='104' y2='134.342' stroke-width='3.2' /><line stroke-linecap='round' stroke='#cc1414' x1='89.6' y1='134.342' x2='104' y2='134.342' stroke-width='1.6' /></g><g partID='854106180'><line stroke-linecap='round' stroke='#8c0000' x1='3.2' y1='177.542' x2='89.6' y2='177.542' stroke-width='3.2' /><line stroke-linecap='round' stroke='#cc1414' x1='3.2' y1='177.542' x2='89.6' y2='177.542' stroke-width='1.6' /></g><g partID='854105720'><line stroke-linecap='round' stroke='#8c0000' x1='3.2' y1='127.142' x2='3.2' y2='177.542' stroke-width='3.2' /><line stroke-linecap='round' stroke='#cc1414' x1='3.2' y1='127.142' x2='3.2' y2='177.542' stroke-width='1.6' /></g><g partID='854106300'><line stroke-linecap='round' stroke='#000000' x1='82.4' y1='127.142' x2='104' y2='127.142' stroke-width='3.2' /><line stroke-linecap='round' stroke='#404040' x1='82.4' y1='127.142' x2='104' y2='127.142' stroke-width='1.6' /></g><g partID='854106240'><line stroke-linecap='round' stroke='#000000' x1='10.4' y1='170.342' x2='82.4' y2='170.342' stroke-width='3.2' /><line stroke-linecap='round' stroke='#404040' x1='10.4' y1='170.342' x2='82.4' y2='170.342' stroke-width='1.6' /></g><g partID='854105750'><line stroke-linecap='round' stroke='#000000' x1='10.4' y1='127.275' x2='10.4' y2='170.342' stroke-width='3.2' /><line stroke-linecap='round' stroke='#404040' x1='10.4' y1='127.275' x2='10.4' y2='170.342' stroke-width='1.6' /></g><g partID='854106360'><line stroke-linecap='round' stroke='#000000' x1='82.4' y1='170.342' x2='82.4' y2='127.142' stroke-width='3.2' /><line stroke-linecap='round' stroke='#404040' x1='82.4' y1='170.342' x2='82.4' y2='127.142' stroke-width='1.6' /></g></svg>